<?xml version="1.0" encoding="UTF-8"?><svg xmlns="http://www.w3.org/2000/svg" xmlns:xlink="http://www.w3.org/1999/xlink" contentScriptType="text/ecmascript" width="810" zoomAndPan="magnify" contentStyleType="text/css" viewBox="0 0 810 809.999993" height="809.999993" preserveAspectRatio="xMidYMid meet" version="1.0"><defs><clipPath id="clip-0"><path d="M 0 0 L 250 0 L 250 281 L 0 281 Z M 0 0 " clip-rule="nonzero"/></clipPath><clipPath id="clip-1"><path d="M 363.449219 124.730469 L -70.714844 371.710938 L -243.53125 67.925781 L 190.636719 -179.054688 Z M 363.449219 124.730469 " clip-rule="nonzero"/></clipPath><clipPath id="clip-2"><path d="M 363.449219 124.730469 L -70.714844 371.710938 L -243.53125 67.925781 L 190.636719 -179.054688 Z M 363.449219 124.730469 " clip-rule="nonzero"/></clipPath><clipPath id="clip-3"><path d="M 170.210938 -48.773438 C 132.734375 -26.496094 9.976562 -76.105469 -66.46875 15.589844 C -142.917969 107.285156 -145.21875 240.75 -53.441406 275.121094 C 38.335938 309.496094 -27.761719 168.414062 56.535156 108.230469 C 140.828125 48.046875 181.410156 73.410156 228.140625 28.597656 C 274.875 -16.214844 240.8125 -90.855469 170.210938 -48.773438 Z M 170.210938 -48.773438 " clip-rule="nonzero"/></clipPath><linearGradient x1="150.932539" gradientTransform="matrix(-1.812802, 1.03124, -1.030802, -1.81203, 317.409671, 87.663409)" xmlns:xlink="http://www.w3.org/1999/xlink" y1="131.433281" x2="19.841319" gradientUnits="userSpaceOnUse" y2="-95.62213" xlink:type="simple" xlink:actuate="onLoad" id="linear-pattern-0" xlink:show="other"><stop stop-opacity="1" stop-color="rgb(64.698792%, 24.699402%, 100%)" offset="0"/><stop stop-opacity="1" stop-color="rgb(64.698792%, 24.699402%, 100%)" offset="0.125"/><stop stop-opacity="1" stop-color="rgb(64.698792%, 24.699402%, 100%)" offset="0.140625"/><stop stop-opacity="1" stop-color="rgb(64.604187%, 24.578857%, 99.984741%)" offset="0.148438"/><stop stop-opacity="1" stop-color="rgb(64.329529%, 24.224854%, 99.943542%)" offset="0.152344"/><stop stop-opacity="1" stop-color="rgb(64.147949%, 23.99292%, 99.916077%)" offset="0.15625"/><stop stop-opacity="1" stop-color="rgb(63.96637%, 23.75946%, 99.888611%)" offset="0.160156"/><stop stop-opacity="1" stop-color="rgb(63.786316%, 23.527527%, 99.862671%)" offset="0.164062"/><stop stop-opacity="1" stop-color="rgb(63.604736%, 23.294067%, 99.835205%)" offset="0.167969"/><stop stop-opacity="1" stop-color="rgb(63.423157%, 23.060608%, 99.807739%)" offset="0.171875"/><stop stop-opacity="1" stop-color="rgb(63.241577%, 22.827148%, 99.780273%)" offset="0.175781"/><stop stop-opacity="1" stop-color="rgb(63.059998%, 22.595215%, 99.752808%)" offset="0.179688"/><stop stop-opacity="1" stop-color="rgb(62.878418%, 22.361755%, 99.725342%)" offset="0.183594"/><stop stop-opacity="1" stop-color="rgb(62.696838%, 22.129822%, 99.699402%)" offset="0.1875"/><stop stop-opacity="1" stop-color="rgb(62.515259%, 21.896362%, 99.671936%)" offset="0.191406"/><stop stop-opacity="1" stop-color="rgb(62.335205%, 21.664429%, 99.64447%)" offset="0.195313"/><stop stop-opacity="1" stop-color="rgb(62.153625%, 21.430969%, 99.617004%)" offset="0.199219"/><stop stop-opacity="1" stop-color="rgb(61.972046%, 21.199036%, 99.589539%)" offset="0.203125"/><stop stop-opacity="1" stop-color="rgb(61.790466%, 20.965576%, 99.562073%)" offset="0.207031"/><stop stop-opacity="1" stop-color="rgb(61.608887%, 20.733643%, 99.536133%)" offset="0.210938"/><stop stop-opacity="1" stop-color="rgb(61.427307%, 20.500183%, 99.508667%)" offset="0.214844"/><stop stop-opacity="1" stop-color="rgb(61.247253%, 20.26825%, 99.481201%)" offset="0.21875"/><stop stop-opacity="1" stop-color="rgb(61.065674%, 20.03479%, 99.453735%)" offset="0.222656"/><stop stop-opacity="1" stop-color="rgb(60.884094%, 19.802856%, 99.42627%)" offset="0.226563"/><stop stop-opacity="1" stop-color="rgb(60.702515%, 19.569397%, 99.398804%)" offset="0.230469"/><stop stop-opacity="1" stop-color="rgb(60.520935%, 19.337463%, 99.372864%)" offset="0.234375"/><stop stop-opacity="1" stop-color="rgb(60.339355%, 19.104004%, 99.345398%)" offset="0.238281"/><stop stop-opacity="1" stop-color="rgb(60.159302%, 18.87207%, 99.317932%)" offset="0.242188"/><stop stop-opacity="1" stop-color="rgb(59.977722%, 18.638611%, 99.290466%)" offset="0.246094"/><stop stop-opacity="1" stop-color="rgb(59.796143%, 18.406677%, 99.263%)" offset="0.25"/><stop stop-opacity="1" stop-color="rgb(59.614563%, 18.173218%, 99.235535%)" offset="0.253906"/><stop stop-opacity="1" stop-color="rgb(59.432983%, 17.941284%, 99.209595%)" offset="0.257812"/><stop stop-opacity="1" stop-color="rgb(59.251404%, 17.707825%, 99.182129%)" offset="0.261719"/><stop stop-opacity="1" stop-color="rgb(59.069824%, 17.475891%, 99.154663%)" offset="0.265625"/><stop stop-opacity="1" stop-color="rgb(58.888245%, 17.242432%, 99.127197%)" offset="0.269531"/><stop stop-opacity="1" stop-color="rgb(58.708191%, 17.010498%, 99.101257%)" offset="0.273438"/><stop stop-opacity="1" stop-color="rgb(58.526611%, 16.777039%, 99.073792%)" offset="0.277344"/><stop stop-opacity="1" stop-color="rgb(58.345032%, 16.545105%, 99.046326%)" offset="0.28125"/><stop stop-opacity="1" stop-color="rgb(58.163452%, 16.311646%, 99.01886%)" offset="0.285156"/><stop stop-opacity="1" stop-color="rgb(57.981873%, 16.079712%, 98.991394%)" offset="0.289063"/><stop stop-opacity="1" stop-color="rgb(57.800293%, 15.846252%, 98.963928%)" offset="0.292969"/><stop stop-opacity="1" stop-color="rgb(57.620239%, 15.614319%, 98.937988%)" offset="0.296875"/><stop stop-opacity="1" stop-color="rgb(57.43866%, 15.380859%, 98.910522%)" offset="0.300781"/><stop stop-opacity="1" stop-color="rgb(57.25708%, 15.148926%, 98.883057%)" offset="0.304688"/><stop stop-opacity="1" stop-color="rgb(57.0755%, 14.915466%, 98.855591%)" offset="0.308594"/><stop stop-opacity="1" stop-color="rgb(56.893921%, 14.682007%, 98.828125%)" offset="0.3125"/><stop stop-opacity="1" stop-color="rgb(56.712341%, 14.448547%, 98.800659%)" offset="0.316406"/><stop stop-opacity="1" stop-color="rgb(56.530762%, 14.216614%, 98.774719%)" offset="0.320312"/><stop stop-opacity="1" stop-color="rgb(56.349182%, 13.983154%, 98.747253%)" offset="0.324219"/><stop stop-opacity="1" stop-color="rgb(56.169128%, 13.751221%, 98.719788%)" offset="0.328125"/><stop stop-opacity="1" stop-color="rgb(55.987549%, 13.517761%, 98.692322%)" offset="0.332031"/><stop stop-opacity="1" stop-color="rgb(55.805969%, 13.285828%, 98.664856%)" offset="0.335938"/><stop stop-opacity="1" stop-color="rgb(55.62439%, 13.052368%, 98.63739%)" offset="0.339844"/><stop stop-opacity="1" stop-color="rgb(55.44281%, 12.820435%, 98.61145%)" offset="0.34375"/><stop stop-opacity="1" stop-color="rgb(55.26123%, 12.586975%, 98.583984%)" offset="0.347656"/><stop stop-opacity="1" stop-color="rgb(55.081177%, 12.355042%, 98.556519%)" offset="0.351562"/><stop stop-opacity="1" stop-color="rgb(54.899597%, 12.121582%, 98.529053%)" offset="0.355469"/><stop stop-opacity="1" stop-color="rgb(54.718018%, 11.889648%, 98.501587%)" offset="0.359375"/><stop stop-opacity="1" stop-color="rgb(54.536438%, 11.656189%, 98.474121%)" offset="0.363281"/><stop stop-opacity="1" stop-color="rgb(54.354858%, 11.424255%, 98.448181%)" offset="0.367188"/><stop stop-opacity="1" stop-color="rgb(54.173279%, 11.190796%, 98.420715%)" offset="0.371094"/><stop stop-opacity="1" stop-color="rgb(53.993225%, 10.958862%, 98.39325%)" offset="0.375"/><stop stop-opacity="1" stop-color="rgb(53.811646%, 10.725403%, 98.365784%)" offset="0.378906"/><stop stop-opacity="1" stop-color="rgb(53.630066%, 10.493469%, 98.338318%)" offset="0.382812"/><stop stop-opacity="1" stop-color="rgb(53.448486%, 10.26001%, 98.310852%)" offset="0.386719"/><stop stop-opacity="1" stop-color="rgb(53.266907%, 10.028076%, 98.284912%)" offset="0.390625"/><stop stop-opacity="1" stop-color="rgb(53.085327%, 9.794617%, 98.257446%)" offset="0.394531"/><stop stop-opacity="1" stop-color="rgb(52.903748%, 9.562683%, 98.22998%)" offset="0.398438"/><stop stop-opacity="1" stop-color="rgb(52.722168%, 9.329224%, 98.202515%)" offset="0.402344"/><stop stop-opacity="1" stop-color="rgb(52.542114%, 9.09729%, 98.175049%)" offset="0.40625"/><stop stop-opacity="1" stop-color="rgb(52.360535%, 8.863831%, 98.147583%)" offset="0.410156"/><stop stop-opacity="1" stop-color="rgb(52.178955%, 8.631897%, 98.121643%)" offset="0.414062"/><stop stop-opacity="1" stop-color="rgb(51.997375%, 8.398438%, 98.094177%)" offset="0.417969"/><stop stop-opacity="1" stop-color="rgb(51.815796%, 8.166504%, 98.066711%)" offset="0.421875"/><stop stop-opacity="1" stop-color="rgb(51.634216%, 7.933044%, 98.039246%)" offset="0.425781"/><stop stop-opacity="1" stop-color="rgb(51.454163%, 7.701111%, 98.01178%)" offset="0.429688"/><stop stop-opacity="1" stop-color="rgb(51.272583%, 7.467651%, 97.984314%)" offset="0.433594"/><stop stop-opacity="1" stop-color="rgb(51.091003%, 7.235718%, 97.958374%)" offset="0.4375"/><stop stop-opacity="1" stop-color="rgb(50.909424%, 7.002258%, 97.930908%)" offset="0.441406"/><stop stop-opacity="1" stop-color="rgb(50.727844%, 6.770325%, 97.903442%)" offset="0.445313"/><stop stop-opacity="1" stop-color="rgb(50.546265%, 6.536865%, 97.875977%)" offset="0.449219"/><stop stop-opacity="1" stop-color="rgb(50.364685%, 6.303406%, 97.848511%)" offset="0.453125"/><stop stop-opacity="1" stop-color="rgb(50.183105%, 6.069946%, 97.821045%)" offset="0.457031"/><stop stop-opacity="1" stop-color="rgb(50.003052%, 5.838013%, 97.795105%)" offset="0.460938"/><stop stop-opacity="1" stop-color="rgb(49.821472%, 5.604553%, 97.767639%)" offset="0.464844"/><stop stop-opacity="1" stop-color="rgb(49.639893%, 5.37262%, 97.740173%)" offset="0.46875"/><stop stop-opacity="1" stop-color="rgb(49.458313%, 5.13916%, 97.712708%)" offset="0.472656"/><stop stop-opacity="1" stop-color="rgb(49.276733%, 4.907227%, 97.685242%)" offset="0.476562"/><stop stop-opacity="1" stop-color="rgb(49.095154%, 4.673767%, 97.657776%)" offset="0.480469"/><stop stop-opacity="1" stop-color="rgb(48.9151%, 4.441833%, 97.631836%)" offset="0.484375"/><stop stop-opacity="1" stop-color="rgb(48.733521%, 4.208374%, 97.60437%)" offset="0.488281"/><stop stop-opacity="1" stop-color="rgb(48.551941%, 3.97644%, 97.576904%)" offset="0.492188"/><stop stop-opacity="1" stop-color="rgb(48.370361%, 3.742981%, 97.549438%)" offset="0.496094"/><stop stop-opacity="1" stop-color="rgb(48.188782%, 3.511047%, 97.521973%)" offset="0.5"/><stop stop-opacity="1" stop-color="rgb(48.007202%, 3.277588%, 97.494507%)" offset="0.503906"/><stop stop-opacity="1" stop-color="rgb(47.827148%, 3.045654%, 97.468567%)" offset="0.507812"/><stop stop-opacity="1" stop-color="rgb(47.645569%, 2.812195%, 97.441101%)" offset="0.511719"/><stop stop-opacity="1" stop-color="rgb(47.463989%, 2.580261%, 97.413635%)" offset="0.515625"/><stop stop-opacity="1" stop-color="rgb(47.28241%, 2.346802%, 97.386169%)" offset="0.519531"/><stop stop-opacity="1" stop-color="rgb(47.10083%, 2.114868%, 97.360229%)" offset="0.523438"/><stop stop-opacity="1" stop-color="rgb(46.91925%, 1.881409%, 97.332764%)" offset="0.527344"/><stop stop-opacity="1" stop-color="rgb(46.737671%, 1.649475%, 97.305298%)" offset="0.53125"/><stop stop-opacity="1" stop-color="rgb(46.717834%, 1.623535%, 97.302246%)" offset="0.5625"/><stop stop-opacity="1" stop-color="rgb(46.699524%, 1.599121%, 97.299194%)" offset="0.625"/><stop stop-opacity="1" stop-color="rgb(46.699524%, 1.599121%, 97.299194%)" offset="0.641595"/><stop stop-opacity="1" stop-color="rgb(46.699524%, 1.599121%, 97.299194%)" offset="0.75"/><stop stop-opacity="1" stop-color="rgb(46.699524%, 1.599121%, 97.299194%)" offset="1"/></linearGradient><clipPath id="clip-4"><path d="M 637 575 L 810 575 L 810 810 L 637 810 Z M 637 575 " clip-rule="nonzero"/></clipPath><clipPath id="clip-5"><path d="M 907.207031 807.011719 C 947.484375 780.410156 1004.734375 872.125 1064.261719 831.082031 C 1123.789062 790.039062 1107.070312 587.863281 869.210938 575.957031 C 661.5 565.570312 616.917969 743.167969 644.273438 831.082031 C 665.550781 899.484375 743.0625 943.570312 816.269531 927.863281 C 904.929688 908.859375 885.675781 821.199219 907.207031 807.011719 Z M 907.207031 807.011719 " clip-rule="nonzero"/></clipPath><linearGradient x1="0.994009" gradientTransform="matrix(2.533092, 0, 0, 2.533512, 636.674318, 575.449845)" xmlns:xlink="http://www.w3.org/1999/xlink" y1="-12.69399" x2="87.34579" gradientUnits="userSpaceOnUse" y2="73.657787" xlink:type="simple" xlink:actuate="onLoad" id="linear-pattern-1" xlink:show="other"><stop stop-opacity="1" stop-color="rgb(46.699524%, 1.599121%, 97.299194%)" offset="0"/><stop stop-opacity="1" stop-color="rgb(46.699524%, 1.599121%, 97.299194%)" offset="0.44136"/><stop stop-opacity="1" stop-color="rgb(46.699524%, 1.599121%, 97.299194%)" offset="0.5"/><stop stop-opacity="1" stop-color="rgb(46.699524%, 1.599121%, 97.299194%)" offset="0.55864"/><stop stop-opacity="1" stop-color="rgb(46.699524%, 1.599121%, 97.299194%)" offset="0.5625"/><stop stop-opacity="1" stop-color="rgb(46.699524%, 1.599121%, 97.299194%)" offset="0.59375"/><stop stop-opacity="1" stop-color="rgb(46.818542%, 1.683044%, 97.309875%)" offset="0.609375"/><stop stop-opacity="1" stop-color="rgb(47.05658%, 1.847839%, 97.329712%)" offset="0.617188"/><stop stop-opacity="1" stop-color="rgb(47.290039%, 2.009583%, 97.351074%)" offset="0.625"/><stop stop-opacity="1" stop-color="rgb(47.525024%, 2.172852%, 97.370911%)" offset="0.632812"/><stop stop-opacity="1" stop-color="rgb(47.76001%, 2.336121%, 97.390747%)" offset="0.640625"/><stop stop-opacity="1" stop-color="rgb(47.993469%, 2.49939%, 97.412109%)" offset="0.648437"/><stop stop-opacity="1" stop-color="rgb(48.228455%, 2.662659%, 97.431946%)" offset="0.65625"/><stop stop-opacity="1" stop-color="rgb(48.461914%, 2.825928%, 97.453308%)" offset="0.664062"/><stop stop-opacity="1" stop-color="rgb(48.696899%, 2.989197%, 97.473145%)" offset="0.671875"/><stop stop-opacity="1" stop-color="rgb(48.930359%, 3.15094%, 97.494507%)" offset="0.679687"/><stop stop-opacity="1" stop-color="rgb(49.165344%, 3.314209%, 97.514343%)" offset="0.6875"/><stop stop-opacity="1" stop-color="rgb(49.40033%, 3.477478%, 97.53418%)" offset="0.695312"/><stop stop-opacity="1" stop-color="rgb(49.633789%, 3.640747%, 97.555542%)" offset="0.703125"/><stop stop-opacity="1" stop-color="rgb(49.868774%, 3.804016%, 97.575378%)" offset="0.710938"/><stop stop-opacity="1" stop-color="rgb(50.102234%, 3.967285%, 97.596741%)" offset="0.71875"/><stop stop-opacity="1" stop-color="rgb(50.337219%, 4.130554%, 97.616577%)" offset="0.726562"/><stop stop-opacity="1" stop-color="rgb(50.570679%, 4.292297%, 97.636414%)" offset="0.734375"/><stop stop-opacity="1" stop-color="rgb(50.805664%, 4.455566%, 97.657776%)" offset="0.742188"/><stop stop-opacity="1" stop-color="rgb(51.040649%, 4.618835%, 97.677612%)" offset="0.75"/><stop stop-opacity="1" stop-color="rgb(51.274109%, 4.782104%, 97.698975%)" offset="0.757812"/><stop stop-opacity="1" stop-color="rgb(51.509094%, 4.945374%, 97.718811%)" offset="0.765625"/><stop stop-opacity="1" stop-color="rgb(51.742554%, 5.108643%, 97.740173%)" offset="0.773438"/><stop stop-opacity="1" stop-color="rgb(51.977539%, 5.271912%, 97.76001%)" offset="0.78125"/><stop stop-opacity="1" stop-color="rgb(52.210999%, 5.433655%, 97.779846%)" offset="0.789062"/><stop stop-opacity="1" stop-color="rgb(52.445984%, 5.596924%, 97.801208%)" offset="0.796875"/><stop stop-opacity="1" stop-color="rgb(52.680969%, 5.760193%, 97.821045%)" offset="0.804688"/><stop stop-opacity="1" stop-color="rgb(52.914429%, 5.923462%, 97.842407%)" offset="0.8125"/><stop stop-opacity="1" stop-color="rgb(53.149414%, 6.086731%, 97.862244%)" offset="0.820312"/><stop stop-opacity="1" stop-color="rgb(53.382874%, 6.25%, 97.883606%)" offset="0.828125"/><stop stop-opacity="1" stop-color="rgb(53.617859%, 6.413269%, 97.903442%)" offset="0.835938"/><stop stop-opacity="1" stop-color="rgb(53.851318%, 6.575012%, 97.923279%)" offset="0.84375"/><stop stop-opacity="1" stop-color="rgb(54.086304%, 6.738281%, 97.944641%)" offset="0.851562"/><stop stop-opacity="1" stop-color="rgb(54.321289%, 6.90155%, 97.964478%)" offset="0.859375"/><stop stop-opacity="1" stop-color="rgb(54.554749%, 7.064819%, 97.98584%)" offset="0.867188"/><stop stop-opacity="1" stop-color="rgb(54.789734%, 7.228088%, 98.005676%)" offset="0.875"/><stop stop-opacity="1" stop-color="rgb(55.023193%, 7.391357%, 98.025513%)" offset="0.882812"/><stop stop-opacity="1" stop-color="rgb(55.258179%, 7.554626%, 98.046875%)" offset="0.890625"/><stop stop-opacity="1" stop-color="rgb(55.491638%, 7.71637%, 98.066711%)" offset="0.898438"/><stop stop-opacity="1" stop-color="rgb(55.726624%, 7.879639%, 98.088074%)" offset="0.90625"/><stop stop-opacity="1" stop-color="rgb(55.961609%, 8.042908%, 98.10791%)" offset="0.914062"/><stop stop-opacity="1" stop-color="rgb(56.195068%, 8.206177%, 98.129272%)" offset="0.921875"/><stop stop-opacity="1" stop-color="rgb(56.430054%, 8.369446%, 98.149109%)" offset="0.929688"/><stop stop-opacity="1" stop-color="rgb(56.663513%, 8.532715%, 98.168945%)" offset="0.9375"/><stop stop-opacity="1" stop-color="rgb(56.898499%, 8.695984%, 98.190308%)" offset="0.945312"/><stop stop-opacity="1" stop-color="rgb(57.131958%, 8.857727%, 98.210144%)" offset="0.953125"/><stop stop-opacity="1" stop-color="rgb(57.366943%, 9.020996%, 98.231506%)" offset="0.960938"/><stop stop-opacity="1" stop-color="rgb(57.601929%, 9.184265%, 98.251343%)" offset="0.96875"/><stop stop-opacity="1" stop-color="rgb(57.835388%, 9.347534%, 98.271179%)" offset="0.976562"/><stop stop-opacity="1" stop-color="rgb(58.070374%, 9.510803%, 98.292542%)" offset="0.984375"/><stop stop-opacity="1" stop-color="rgb(58.303833%, 9.674072%, 98.312378%)" offset="0.992188"/><stop stop-opacity="1" stop-color="rgb(58.538818%, 9.837341%, 98.33374%)" offset="1"/></linearGradient><clipPath id="clip-6"><path d="M 677 754.316406 L 738.824219 754.316406 L 738.824219 810 L 677 810 Z M 677 754.316406 " clip-rule="nonzero"/></clipPath><clipPath id="clip-7"><path d="M 630 754.316406 L 692 754.316406 L 692 810 L 630 810 Z M 630 754.316406 " clip-rule="nonzero"/></clipPath><clipPath id="clip-8"><path d="M 583.140625 754.316406 L 645 754.316406 L 645 810 L 583.140625 810 Z M 583.140625 754.316406 " clip-rule="nonzero"/></clipPath><clipPath id="clip-9"><path d="M 120 0 L 172.578125 0 L 172.578125 48.023438 L 120 48.023438 Z M 120 0 " clip-rule="nonzero"/></clipPath><clipPath id="clip-10"><path d="M 80 0 L 133 0 L 133 48.023438 L 80 48.023438 Z M 80 0 " clip-rule="nonzero"/></clipPath><clipPath id="clip-11"><path d="M 39.980469 0 L 93 0 L 93 48.023438 L 39.980469 48.023438 Z M 39.980469 0 " clip-rule="nonzero"/></clipPath><clipPath id="clip-12"><path d="M 32 683 L 138 683 L 138 746 L 32 746 Z M 32 683 " clip-rule="nonzero"/></clipPath><clipPath id="clip-13"><path d="M 143.566406 697.792969 L 133.054688 772.8125 L 21.644531 757.199219 L 32.15625 682.183594 Z M 143.566406 697.792969 " clip-rule="nonzero"/></clipPath><clipPath id="clip-14"><path d="M 143.566406 697.792969 L 133.054688 772.8125 L 21.644531 757.199219 L 32.15625 682.183594 Z M 143.566406 697.792969 " clip-rule="nonzero"/></clipPath><clipPath id="clip-15"><path d="M 52 740 L 104 740 L 104 767 L 52 767 Z M 52 740 " clip-rule="nonzero"/></clipPath><clipPath id="clip-16"><path d="M 143.566406 697.792969 L 133.054688 772.8125 L 21.644531 757.199219 L 32.15625 682.183594 Z M 143.566406 697.792969 " clip-rule="nonzero"/></clipPath><clipPath id="clip-17"><path d="M 143.566406 697.792969 L 133.054688 772.8125 L 21.644531 757.199219 L 32.15625 682.183594 Z M 143.566406 697.792969 " clip-rule="nonzero"/></clipPath></defs><rect x="-81" width="972" fill="rgb(100%, 100%, 100%)" y="-80.999999" height="971.999992" fill-opacity="1"/><rect x="-81" width="972" fill="rgb(100%, 100%, 100%)" y="-80.999999" height="971.999992" fill-opacity="1"/><rect x="-81" width="972" fill="rgb(64.709473%, 24.708557%, 100%)" y="-80.999999" height="971.999992" fill-opacity="1"/><g clip-path="url(#clip-0)"><g clip-path="url(#clip-1)"><g clip-path="url(#clip-2)"><g clip-path="url(#clip-3)"><path fill="url(#linear-pattern-0)" d="M 407.890625 233.828125 L 207.667969 -118.136719 L -133.015625 75.667969 L 67.203125 427.632812 Z M 407.890625 233.828125 " fill-rule="nonzero"/></g></g></g></g><g clip-path="url(#clip-4)"><g clip-path="url(#clip-5)"><path fill="url(#linear-pattern-1)" d="M 616.917969 565.570312 L 616.917969 810 L 810 810 L 810 565.570312 Z M 616.917969 565.570312 " fill-rule="nonzero"/></g></g><g clip-path="url(#clip-6)"><path fill="rgb(100%, 100%, 100%)" d="M 677.859375 756.003906 L 710.847656 789.058594 C 711.277344 789.5 711.277344 790.222656 710.847656 790.664062 L 677.859375 823.714844 C 677.472656 824.105469 677.472656 824.726562 677.859375 825.113281 C 678.039062 825.292969 678.285156 825.40625 678.550781 825.40625 L 703.414062 825.40625 C 703.675781 825.40625 703.925781 825.292969 704.105469 825.113281 L 738.492188 790.664062 C 738.933594 790.222656 738.933594 789.5 738.492188 789.058594 L 704.105469 754.605469 C 703.925781 754.414062 703.675781 754.316406 703.414062 754.316406 L 678.550781 754.316406 C 678.011719 754.316406 677.566406 754.757812 677.566406 755.3125 C 677.566406 755.5625 677.679688 755.8125 677.859375 756.003906 " fill-opacity="1" fill-rule="nonzero"/></g><g clip-path="url(#clip-7)"><path fill="rgb(100%, 100%, 100%)" d="M 630.644531 756.003906 L 663.636719 789.058594 C 664.078125 789.5 664.078125 790.222656 663.636719 790.664062 L 630.644531 823.714844 C 630.257812 824.105469 630.257812 824.726562 630.644531 825.113281 C 630.824219 825.292969 631.074219 825.40625 631.335938 825.40625 L 656.199219 825.40625 C 656.449219 825.40625 656.699219 825.292969 656.890625 825.113281 L 691.292969 790.664062 C 691.734375 790.222656 691.734375 789.5 691.292969 789.058594 L 656.890625 754.605469 C 656.699219 754.414062 656.449219 754.316406 656.199219 754.316406 L 631.335938 754.316406 C 630.796875 754.316406 630.355469 754.757812 630.355469 755.3125 C 630.355469 755.5625 630.453125 755.8125 630.644531 756.003906 " fill-opacity="1" fill-rule="nonzero"/></g><g clip-path="url(#clip-8)"><path fill="rgb(100%, 100%, 100%)" d="M 583.433594 756.003906 L 616.421875 789.058594 C 616.867188 789.5 616.867188 790.222656 616.421875 790.664062 L 583.433594 823.714844 C 583.046875 824.105469 583.046875 824.726562 583.433594 825.113281 C 583.625 825.292969 583.875 825.40625 584.136719 825.40625 L 609 825.40625 C 609.265625 825.40625 609.511719 825.292969 609.691406 825.113281 L 644.078125 790.664062 C 644.523438 790.222656 644.523438 789.5 644.078125 789.058594 L 609.691406 754.605469 C 609.511719 754.414062 609.265625 754.316406 609 754.316406 L 584.136719 754.316406 C 583.597656 754.300781 583.140625 754.746094 583.140625 755.300781 C 583.140625 755.5625 583.253906 755.8125 583.433594 756.003906 " fill-opacity="1" fill-rule="nonzero"/></g><g clip-path="url(#clip-9)"><path fill="rgb(100%, 100%, 100%)" d="M 120.652344 -11.160156 L 148.75 17.023438 C 149.117188 17.398438 149.117188 18.015625 148.75 18.390625 L 120.652344 46.574219 C 120.324219 46.902344 120.324219 47.433594 120.652344 47.765625 C 120.804688 47.917969 121.015625 48.011719 121.242188 48.011719 L 142.417969 48.011719 C 142.640625 48.011719 142.855469 47.917969 143.007812 47.765625 L 172.292969 18.390625 C 172.671875 18.015625 172.671875 17.398438 172.292969 17.023438 L 143.007812 -12.351562 C 142.855469 -12.515625 142.640625 -12.601562 142.417969 -12.601562 L 121.242188 -12.601562 C 120.78125 -12.601562 120.40625 -12.222656 120.40625 -11.75 C 120.40625 -11.539062 120.5 -11.324219 120.652344 -11.160156 " fill-opacity="1" fill-rule="nonzero"/></g><g clip-path="url(#clip-10)"><path fill="rgb(100%, 100%, 100%)" d="M 80.441406 -11.160156 L 108.539062 17.023438 C 108.917969 17.398438 108.917969 18.015625 108.539062 18.390625 L 80.441406 46.574219 C 80.109375 46.902344 80.109375 47.433594 80.441406 47.765625 C 80.59375 47.917969 80.804688 48.011719 81.027344 48.011719 L 102.207031 48.011719 C 102.417969 48.011719 102.628906 47.917969 102.792969 47.765625 L 132.09375 18.390625 C 132.472656 18.015625 132.472656 17.398438 132.09375 17.023438 L 102.792969 -12.351562 C 102.628906 -12.515625 102.417969 -12.601562 102.207031 -12.601562 L 81.027344 -12.601562 C 80.570312 -12.601562 80.191406 -12.222656 80.191406 -11.75 C 80.191406 -11.539062 80.277344 -11.324219 80.441406 -11.160156 " fill-opacity="1" fill-rule="nonzero"/></g><g clip-path="url(#clip-11)"><path fill="rgb(100%, 100%, 100%)" d="M 40.230469 -11.160156 L 68.328125 17.023438 C 68.703125 17.398438 68.703125 18.015625 68.328125 18.390625 L 40.230469 46.574219 C 39.898438 46.902344 39.898438 47.433594 40.230469 47.765625 C 40.394531 47.917969 40.605469 48.011719 40.828125 48.011719 L 62.007812 48.011719 C 62.230469 48.011719 62.441406 47.917969 62.59375 47.765625 L 91.882812 18.390625 C 92.257812 18.015625 92.257812 17.398438 91.882812 17.023438 L 62.59375 -12.351562 C 62.441406 -12.515625 62.230469 -12.601562 62.007812 -12.601562 L 40.828125 -12.601562 C 40.371094 -12.613281 39.980469 -12.234375 39.980469 -11.761719 C 39.980469 -11.539062 40.074219 -11.324219 40.230469 -11.160156 " fill-opacity="1" fill-rule="nonzero"/></g><g clip-path="url(#clip-12)"><g clip-path="url(#clip-13)"><g clip-path="url(#clip-14)"><path fill="rgb(96.469116%, 81.959534%, 19.999695%)" d="M 121.929688 745.433594 C 114.214844 743.640625 106.925781 741.292969 99.5625 739.242188 C 88.554688 736.140625 79.289062 729.980469 70.421875 723.285156 C 62.183594 717.058594 54.621094 709.929688 47.503906 702.390625 C 43.171875 697.804688 38.53125 693.488281 34.632812 688.511719 C 33.652344 687.257812 31.625 685.917969 33.320312 684.300781 C 34.785156 682.898438 37.019531 682.882812 38.832031 684.324219 C 42.117188 686.933594 45.347656 689.609375 48.640625 692.207031 C 55.972656 698.015625 62.605469 704.835938 70.539062 709.816406 C 77.519531 714.199219 84.203125 719.226562 92.472656 721.449219 C 95.863281 722.363281 99.011719 724.488281 102.257812 726.023438 C 111.476562 730.371094 121.042969 733.695312 130.589844 737.078125 C 131.378906 737.359375 132.269531 737.472656 132.957031 737.917969 C 134.429688 738.855469 136.691406 738.953125 137.054688 741.125 C 137.289062 742.5 133.148438 745.84375 131.210938 745.832031 C 128.039062 745.804688 124.863281 745.570312 121.929688 745.433594 Z M 121.929688 745.433594 " fill-opacity="1" fill-rule="nonzero"/></g></g></g><g clip-path="url(#clip-15)"><g clip-path="url(#clip-16)"><g clip-path="url(#clip-17)"><path fill="rgb(96.469116%, 81.959534%, 19.999695%)" d="M 84.917969 766.007812 C 82.207031 765.386719 79.625 764.300781 77.285156 762.796875 C 70.382812 758.613281 64.355469 753.304688 58.320312 748.011719 C 57.066406 746.910156 56.054688 745.542969 54.164062 745.4375 C 52.367188 745.332031 52.121094 744.132812 52.222656 742.578125 C 52.324219 741.027344 53.1875 740.648438 54.441406 740.339844 C 56.085938 739.914062 57.832031 740.195312 59.257812 741.117188 C 64.421875 744.226562 70.121094 746.285156 75.363281 749.292969 C 77.511719 750.527344 80.191406 751.164062 82.902344 751.558594 C 85.828125 751.96875 88.636719 753.167969 91.808594 753.183594 C 94.601562 753.199219 97.316406 753.832031 100.214844 753.253906 C 102.957031 752.703125 103.804688 753.757812 103.925781 756.558594 C 104.125 761.253906 100.246094 765.777344 95.597656 766.246094 C 94.597656 766.339844 93.59375 766.371094 92.585938 766.335938 C 90.089844 766.257812 87.589844 766.128906 84.917969 766.007812 Z M 84.917969 766.007812 " fill-opacity="1" fill-rule="nonzero"/></g></g></g></svg>