<svg xmlns="http://www.w3.org/2000/svg" xmlns:xlink="http://www.w3.org/1999/xlink" width="500" zoomAndPan="magnify" viewBox="0 0 375 374.999991" height="500" preserveAspectRatio="xMidYMid meet" version="1.0"><defs><g/><clipPath id="cb80c46e38"><path d="M 25.261719 25.261719 L 349 25.261719 L 349 349 L 25.261719 349 Z M 25.261719 25.261719 " clip-rule="nonzero"/></clipPath><clipPath id="f760cfadec"><path d="M 25.261719 25.261719 L 349.277344 25.261719 L 349.277344 349.277344 L 25.261719 349.277344 Z M 25.261719 25.261719 " clip-rule="nonzero"/></clipPath></defs><path fill="#ebe9d6" d="M 370.308594 187.25 C 370.308594 190.246094 370.238281 193.238281 370.089844 196.230469 C 369.941406 199.226562 369.722656 202.210938 369.425781 205.195312 C 369.132812 208.175781 368.765625 211.148438 368.328125 214.113281 C 367.886719 217.078125 367.375 220.027344 366.789062 222.964844 C 366.203125 225.90625 365.546875 228.828125 364.816406 231.734375 C 364.089844 234.640625 363.289062 237.527344 362.417969 240.394531 C 361.546875 243.261719 360.609375 246.105469 359.597656 248.929688 C 358.585938 251.75 357.507812 254.542969 356.359375 257.3125 C 355.214844 260.082031 354 262.820312 352.714844 265.527344 C 351.433594 268.234375 350.085938 270.910156 348.671875 273.554688 C 347.257812 276.195312 345.78125 278.804688 344.238281 281.371094 C 342.695312 283.941406 341.09375 286.472656 339.425781 288.964844 C 337.761719 291.457031 336.035156 293.90625 334.246094 296.3125 C 332.460938 298.71875 330.617188 301.078125 328.714844 303.394531 C 326.8125 305.710938 324.851562 307.980469 322.839844 310.199219 C 320.824219 312.421875 318.757812 314.589844 316.636719 316.707031 C 314.515625 318.828125 312.34375 320.894531 310.125 322.90625 C 307.902344 324.917969 305.632812 326.875 303.3125 328.773438 C 300.996094 330.675781 298.632812 332.519531 296.222656 334.304688 C 293.8125 336.089844 291.363281 337.8125 288.867188 339.476562 C 286.375 341.140625 283.84375 342.746094 281.269531 344.285156 C 278.695312 345.824219 276.089844 347.300781 273.445312 348.714844 C 270.796875 350.128906 268.121094 351.472656 265.410156 352.753906 C 262.699219 354.035156 259.957031 355.25 257.1875 356.398438 C 254.417969 357.542969 251.617188 358.621094 248.796875 359.628906 C 245.972656 360.640625 243.125 361.578125 240.253906 362.449219 C 237.386719 363.320312 234.496094 364.117188 231.585938 364.847656 C 228.675781 365.574219 225.753906 366.230469 222.8125 366.816406 C 219.871094 367.398438 216.914062 367.910156 213.949219 368.351562 C 210.980469 368.792969 208.007812 369.15625 205.023438 369.453125 C 202.039062 369.746094 199.046875 369.964844 196.050781 370.113281 C 193.058594 370.257812 190.058594 370.332031 187.058594 370.332031 C 184.0625 370.332031 181.0625 370.257812 178.070312 370.113281 C 175.074219 369.964844 172.082031 369.746094 169.097656 369.453125 C 166.113281 369.15625 163.140625 368.792969 160.171875 368.351562 C 157.207031 367.910156 154.25 367.398438 151.308594 366.816406 C 148.367188 366.230469 145.445312 365.574219 142.535156 364.847656 C 139.625 364.117188 136.734375 363.320312 133.867188 362.449219 C 130.996094 361.578125 128.148438 360.640625 125.324219 359.628906 C 122.5 358.621094 119.703125 357.542969 116.933594 356.398438 C 114.164062 355.25 111.421875 354.035156 108.710938 352.753906 C 106 351.472656 103.320312 350.128906 100.675781 348.714844 C 98.03125 347.300781 95.421875 345.824219 92.851562 344.285156 C 90.277344 342.746094 87.746094 341.140625 85.253906 339.476562 C 82.757812 337.8125 80.308594 336.089844 77.898438 334.304688 C 75.488281 332.519531 73.125 330.675781 70.808594 328.773438 C 68.488281 326.875 66.21875 324.917969 63.996094 322.90625 C 61.777344 320.894531 59.605469 318.828125 57.484375 316.707031 C 55.363281 314.589844 53.296875 312.421875 51.28125 310.199219 C 49.265625 307.980469 47.308594 305.710938 45.40625 303.394531 C 43.503906 301.078125 41.660156 298.71875 39.871094 296.3125 C 38.085938 293.90625 36.359375 291.457031 34.695312 288.964844 C 33.027344 286.472656 31.421875 283.941406 29.882812 281.371094 C 28.339844 278.804688 26.863281 276.195312 25.449219 273.554688 C 24.035156 270.910156 22.6875 268.234375 21.40625 265.527344 C 20.121094 262.820312 18.90625 260.082031 17.761719 257.3125 C 16.613281 254.542969 15.535156 251.75 14.523438 248.929688 C 13.511719 246.105469 12.570312 243.261719 11.703125 240.394531 C 10.832031 237.527344 10.03125 234.640625 9.300781 231.734375 C 8.574219 228.828125 7.917969 225.90625 7.332031 222.964844 C 6.746094 220.027344 6.234375 217.078125 5.792969 214.113281 C 5.355469 211.148438 4.988281 208.175781 4.691406 205.195312 C 4.398438 202.210938 4.179688 199.226562 4.03125 196.230469 C 3.882812 193.238281 3.8125 190.246094 3.8125 187.25 C 3.8125 184.253906 3.882812 181.257812 4.03125 178.265625 C 4.179688 175.273438 4.398438 172.285156 4.691406 169.304688 C 4.988281 166.320312 5.355469 163.347656 5.792969 160.382812 C 6.234375 157.421875 6.746094 154.46875 7.332031 151.53125 C 7.917969 148.59375 8.574219 145.667969 9.300781 142.761719 C 10.03125 139.855469 10.832031 136.96875 11.703125 134.101562 C 12.570312 131.234375 13.511719 128.390625 14.523438 125.570312 C 15.535156 122.75 16.613281 119.953125 17.761719 117.183594 C 18.90625 114.417969 20.121094 111.679688 21.40625 108.96875 C 22.6875 106.261719 24.035156 103.585938 25.449219 100.941406 C 26.863281 98.300781 28.339844 95.695312 29.882812 93.125 C 31.421875 90.554688 33.027344 88.023438 34.695312 85.53125 C 36.359375 83.039062 38.085938 80.59375 39.871094 78.183594 C 41.660156 75.777344 43.503906 73.417969 45.40625 71.101562 C 47.308594 68.785156 49.265625 66.515625 51.28125 64.296875 C 53.296875 62.078125 55.363281 59.90625 57.484375 57.789062 C 59.605469 55.667969 61.777344 53.605469 63.996094 51.59375 C 66.21875 49.578125 68.488281 47.625 70.808594 45.722656 C 73.125 43.820312 75.488281 41.980469 77.898438 40.195312 C 80.308594 38.410156 82.757812 36.683594 85.253906 35.019531 C 87.746094 33.355469 90.277344 31.753906 92.851562 30.210938 C 95.421875 28.671875 98.03125 27.195312 100.675781 25.78125 C 103.320312 24.371094 106 23.023438 108.710938 21.742188 C 111.421875 20.460938 114.164062 19.246094 116.933594 18.101562 C 119.703125 16.953125 122.5 15.875 125.324219 14.867188 C 128.148438 13.855469 130.996094 12.917969 133.867188 12.046875 C 136.734375 11.179688 139.625 10.378906 142.535156 9.652344 C 145.445312 8.921875 148.367188 8.265625 151.308594 7.683594 C 154.25 7.097656 157.207031 6.585938 160.171875 6.144531 C 163.140625 5.707031 166.113281 5.339844 169.097656 5.046875 C 172.082031 4.753906 175.074219 4.53125 178.070312 4.382812 C 181.0625 4.238281 184.0625 4.164062 187.058594 4.164062 C 190.058594 4.164062 193.058594 4.238281 196.050781 4.382812 C 199.046875 4.53125 202.039062 4.753906 205.023438 5.046875 C 208.007812 5.339844 210.980469 5.707031 213.949219 6.144531 C 216.914062 6.585938 219.871094 7.097656 222.8125 7.683594 C 225.753906 8.265625 228.675781 8.921875 231.585938 9.652344 C 234.496094 10.378906 237.386719 11.179688 240.253906 12.046875 C 243.125 12.917969 245.972656 13.855469 248.796875 14.867188 C 251.617188 15.875 254.417969 16.953125 257.1875 18.101562 C 259.957031 19.246094 262.699219 20.460938 265.410156 21.742188 C 268.121094 23.023438 270.796875 24.371094 273.445312 25.78125 C 276.089844 27.195312 278.695312 28.671875 281.269531 30.210938 C 283.84375 31.753906 286.375 33.355469 288.867188 35.019531 C 291.363281 36.683594 293.8125 38.410156 296.222656 40.195312 C 298.632812 41.980469 300.996094 43.820312 303.3125 45.722656 C 305.632812 47.625 307.902344 49.578125 310.125 51.59375 C 312.34375 53.605469 314.515625 55.667969 316.636719 57.789062 C 318.757812 59.90625 320.824219 62.078125 322.839844 64.296875 C 324.851562 66.515625 326.8125 68.785156 328.714844 71.101562 C 330.617188 73.417969 332.460938 75.777344 334.246094 78.183594 C 336.035156 80.59375 337.761719 83.039062 339.425781 85.53125 C 341.09375 88.023438 342.695312 90.554688 344.238281 93.125 C 345.78125 95.695312 347.257812 98.300781 348.671875 100.941406 C 350.085938 103.585938 351.433594 106.261719 352.714844 108.96875 C 354 111.679688 355.214844 114.417969 356.359375 117.183594 C 357.507812 119.953125 358.585938 122.75 359.597656 125.570312 C 360.609375 128.390625 361.546875 131.234375 362.417969 134.101562 C 363.289062 136.96875 364.089844 139.855469 364.816406 142.761719 C 365.546875 145.667969 366.203125 148.59375 366.789062 151.53125 C 367.375 154.46875 367.886719 157.421875 368.328125 160.382812 C 368.765625 163.347656 369.132812 166.320312 369.425781 169.304688 C 369.722656 172.285156 369.941406 175.273438 370.089844 178.265625 C 370.238281 181.257812 370.308594 184.253906 370.308594 187.25 Z M 370.308594 187.25 " fill-opacity="1" fill-rule="nonzero"/><path fill="#000000" d="M 187.058594 373.730469 C 84.140625 373.730469 0.410156 290.078125 0.410156 187.25 C 0.410156 84.421875 84.140625 0.761719 187.058594 0.761719 C 289.984375 0.761719 373.710938 84.421875 373.710938 187.25 C 373.710938 290.074219 289.984375 373.730469 187.058594 373.730469 Z M 187.058594 7.5625 C 87.894531 7.5625 7.214844 88.167969 7.214844 187.25 C 7.214844 286.328125 87.894531 366.933594 187.058594 366.933594 C 286.230469 366.933594 366.910156 286.328125 366.910156 187.25 C 366.910156 88.167969 286.230469 7.5625 187.058594 7.5625 Z M 187.058594 7.5625 " fill-opacity="1" fill-rule="nonzero"/><g clip-path="url(#cb80c46e38)"><path fill="#ffffff" d="M 348.953125 187.269531 C 348.953125 189.914062 348.886719 192.558594 348.757812 195.203125 C 348.628906 197.84375 348.433594 200.484375 348.175781 203.117188 C 347.914062 205.75 347.589844 208.375 347.203125 210.992188 C 346.8125 213.609375 346.363281 216.21875 345.847656 218.8125 C 345.328125 221.40625 344.75 223.988281 344.105469 226.554688 C 343.464844 229.121094 342.757812 231.671875 341.992188 234.203125 C 341.222656 236.734375 340.394531 239.246094 339.5 241.738281 C 338.609375 244.230469 337.65625 246.699219 336.644531 249.144531 C 335.632812 251.585938 334.5625 254.003906 333.429688 256.398438 C 332.296875 258.789062 331.109375 261.152344 329.859375 263.488281 C 328.613281 265.820312 327.308594 268.121094 325.949219 270.390625 C 324.589844 272.660156 323.175781 274.894531 321.703125 277.097656 C 320.234375 279.296875 318.710938 281.457031 317.132812 283.582031 C 315.558594 285.710938 313.929688 287.792969 312.253906 289.839844 C 310.574219 291.886719 308.847656 293.886719 307.070312 295.847656 C 305.292969 297.808594 303.46875 299.726562 301.597656 301.597656 C 299.726562 303.46875 297.808594 305.292969 295.847656 307.070312 C 293.886719 308.847656 291.886719 310.574219 289.839844 312.253906 C 287.792969 313.929688 285.710938 315.558594 283.585938 317.132812 C 281.457031 318.710938 279.296875 320.234375 277.097656 321.703125 C 274.894531 323.175781 272.660156 324.589844 270.390625 325.949219 C 268.121094 327.308594 265.820312 328.613281 263.484375 329.859375 C 261.152344 331.109375 258.789062 332.296875 256.398438 333.429688 C 254.003906 334.5625 251.585938 335.632812 249.144531 336.644531 C 246.699219 337.65625 244.230469 338.609375 241.738281 339.5 C 239.246094 340.394531 236.734375 341.222656 234.203125 341.992188 C 231.671875 342.757812 229.121094 343.464844 226.554688 344.105469 C 223.988281 344.75 221.40625 345.328125 218.8125 345.847656 C 216.21875 346.363281 213.609375 346.8125 210.992188 347.203125 C 208.375 347.589844 205.75 347.914062 203.117188 348.175781 C 200.484375 348.433594 197.84375 348.628906 195.203125 348.757812 C 192.558594 348.886719 189.914062 348.953125 187.269531 348.953125 C 184.625 348.953125 181.980469 348.886719 179.335938 348.757812 C 176.691406 348.628906 174.054688 348.433594 171.421875 348.175781 C 168.789062 347.914062 166.164062 347.589844 163.546875 347.203125 C 160.929688 346.8125 158.320312 346.363281 155.726562 345.847656 C 153.132812 345.328125 150.550781 344.75 147.984375 344.105469 C 145.417969 343.464844 142.867188 342.757812 140.335938 341.992188 C 137.804688 341.222656 135.292969 340.394531 132.800781 339.5 C 130.308594 338.609375 127.839844 337.65625 125.394531 336.644531 C 122.949219 335.632812 120.53125 334.5625 118.140625 333.429688 C 115.75 332.296875 113.386719 331.109375 111.050781 329.859375 C 108.71875 328.613281 106.417969 327.308594 104.148438 325.949219 C 101.878906 324.589844 99.644531 323.175781 97.441406 321.703125 C 95.242188 320.234375 93.078125 318.710938 90.953125 317.132812 C 88.828125 315.558594 86.742188 313.929688 84.699219 312.253906 C 82.652344 310.574219 80.648438 308.847656 78.6875 307.070312 C 76.730469 305.292969 74.8125 303.46875 72.941406 301.597656 C 71.070312 299.726562 69.246094 297.808594 67.46875 295.847656 C 65.691406 293.886719 63.964844 291.886719 62.285156 289.839844 C 60.609375 287.792969 58.980469 285.710938 57.402344 283.585938 C 55.828125 281.457031 54.304688 279.296875 52.835938 277.097656 C 51.363281 274.894531 49.949219 272.660156 48.589844 270.390625 C 47.230469 268.121094 45.925781 265.820312 44.675781 263.484375 C 43.429688 261.152344 42.242188 258.789062 41.109375 256.398438 C 39.976562 254.003906 38.90625 251.585938 37.894531 249.144531 C 36.878906 246.699219 35.929688 244.230469 35.039062 241.738281 C 34.144531 239.246094 33.316406 236.734375 32.546875 234.203125 C 31.78125 231.671875 31.074219 229.121094 30.429688 226.554688 C 29.789062 223.988281 29.207031 221.40625 28.691406 218.8125 C 28.175781 216.21875 27.722656 213.609375 27.335938 210.992188 C 26.949219 208.375 26.625 205.75 26.363281 203.117188 C 26.105469 200.484375 25.910156 197.84375 25.78125 195.203125 C 25.652344 192.558594 25.585938 189.914062 25.585938 187.269531 C 25.585938 184.625 25.652344 181.980469 25.78125 179.335938 C 25.910156 176.691406 26.105469 174.054688 26.363281 171.421875 C 26.625 168.789062 26.949219 166.164062 27.335938 163.546875 C 27.722656 160.929688 28.175781 158.320312 28.691406 155.726562 C 29.207031 153.132812 29.789062 150.550781 30.429688 147.984375 C 31.074219 145.417969 31.78125 142.867188 32.546875 140.335938 C 33.316406 137.804688 34.144531 135.292969 35.039062 132.800781 C 35.929688 130.308594 36.878906 127.839844 37.894531 125.394531 C 38.90625 122.949219 39.976562 120.53125 41.109375 118.140625 C 42.242188 115.75 43.429688 113.386719 44.675781 111.050781 C 45.925781 108.71875 47.230469 106.417969 48.589844 104.148438 C 49.949219 101.878906 51.363281 99.644531 52.835938 97.441406 C 54.304688 95.242188 55.828125 93.078125 57.402344 90.953125 C 58.980469 88.828125 60.609375 86.742188 62.285156 84.699219 C 63.964844 82.652344 65.691406 80.648438 67.46875 78.6875 C 69.246094 76.730469 71.070312 74.8125 72.941406 72.941406 C 74.8125 71.070312 76.730469 69.246094 78.6875 67.46875 C 80.648438 65.691406 82.652344 63.964844 84.699219 62.285156 C 86.742188 60.609375 88.828125 58.980469 90.953125 57.402344 C 93.078125 55.828125 95.242188 54.304688 97.441406 52.835938 C 99.644531 51.363281 101.878906 49.949219 104.148438 48.589844 C 106.417969 47.230469 108.71875 45.925781 111.050781 44.675781 C 113.386719 43.429688 115.75 42.242188 118.140625 41.109375 C 120.53125 39.976562 122.949219 38.90625 125.394531 37.894531 C 127.839844 36.878906 130.308594 35.929688 132.800781 35.039062 C 135.292969 34.144531 137.804688 33.316406 140.335938 32.546875 C 142.867188 31.78125 145.417969 31.074219 147.984375 30.429688 C 150.550781 29.789062 153.132812 29.207031 155.726562 28.691406 C 158.320312 28.175781 160.929688 27.722656 163.546875 27.335938 C 166.164062 26.949219 168.789062 26.625 171.421875 26.363281 C 174.054688 26.105469 176.691406 25.910156 179.335938 25.78125 C 181.980469 25.652344 184.625 25.585938 187.269531 25.585938 C 189.914062 25.585938 192.558594 25.652344 195.203125 25.78125 C 197.84375 25.910156 200.484375 26.105469 203.117188 26.363281 C 205.75 26.625 208.375 26.949219 210.992188 27.335938 C 213.609375 27.722656 216.21875 28.175781 218.8125 28.691406 C 221.40625 29.207031 223.988281 29.789062 226.554688 30.429688 C 229.121094 31.074219 231.671875 31.78125 234.203125 32.546875 C 236.734375 33.316406 239.246094 34.144531 241.738281 35.039062 C 244.230469 35.929688 246.699219 36.878906 249.144531 37.894531 C 251.585938 38.90625 254.003906 39.976562 256.398438 41.109375 C 258.789062 42.242188 261.152344 43.429688 263.488281 44.675781 C 265.820312 45.925781 268.121094 47.230469 270.390625 48.589844 C 272.660156 49.949219 274.894531 51.363281 277.097656 52.835938 C 279.296875 54.304688 281.457031 55.828125 283.582031 57.402344 C 285.710938 58.980469 287.792969 60.609375 289.839844 62.285156 C 291.886719 63.964844 293.886719 65.691406 295.847656 67.46875 C 297.808594 69.246094 299.726562 71.070312 301.597656 72.941406 C 303.46875 74.8125 305.292969 76.730469 307.070312 78.6875 C 308.847656 80.648438 310.574219 82.652344 312.253906 84.699219 C 313.929688 86.742188 315.558594 88.828125 317.132812 90.953125 C 318.710938 93.078125 320.234375 95.242188 321.703125 97.441406 C 323.175781 99.644531 324.589844 101.878906 325.949219 104.148438 C 327.308594 106.417969 328.613281 108.71875 329.859375 111.050781 C 331.109375 113.386719 332.296875 115.75 333.429688 118.140625 C 334.5625 120.53125 335.632812 122.949219 336.644531 125.394531 C 337.65625 127.839844 338.609375 130.308594 339.5 132.800781 C 340.394531 135.292969 341.222656 137.804688 341.992188 140.335938 C 342.757812 142.867188 343.464844 145.417969 344.105469 147.984375 C 344.75 150.550781 345.328125 153.132812 345.847656 155.726562 C 346.363281 158.320312 346.8125 160.929688 347.203125 163.546875 C 347.589844 166.164062 347.914062 168.789062 348.175781 171.421875 C 348.433594 174.054688 348.628906 176.691406 348.757812 179.335938 C 348.886719 181.980469 348.953125 184.625 348.953125 187.269531 Z M 348.953125 187.269531 " fill-opacity="1" fill-rule="nonzero"/></g><g clip-path="url(#f760cfadec)"><path fill="#000000" d="M 187.269531 349.277344 C 144.003906 349.277344 103.324219 332.394531 72.734375 301.804688 C 42.140625 271.214844 25.261719 230.535156 25.261719 187.269531 C 25.261719 144.003906 42.140625 103.324219 72.734375 72.734375 C 103.324219 42.140625 144.003906 25.261719 187.269531 25.261719 C 230.535156 25.261719 271.214844 42.140625 301.804688 72.734375 C 332.394531 103.324219 349.277344 144.003906 349.277344 187.269531 C 349.277344 230.535156 332.394531 271.214844 301.804688 301.804688 C 271.214844 332.394531 230.535156 349.277344 187.269531 349.277344 Z M 187.269531 34.964844 C 146.589844 34.964844 108.367188 50.808594 79.589844 79.589844 C 50.808594 108.367188 34.964844 146.589844 34.964844 187.269531 C 34.964844 227.949219 50.808594 266.171875 79.589844 294.949219 C 108.367188 323.730469 146.589844 339.574219 187.269531 339.574219 C 227.949219 339.574219 266.171875 323.730469 294.949219 294.949219 C 323.730469 266.171875 339.574219 227.949219 339.574219 187.269531 C 339.574219 146.589844 323.730469 108.367188 294.949219 79.589844 C 266.171875 50.808594 227.949219 34.964844 187.269531 34.964844 Z M 187.269531 34.964844 " fill-opacity="1" fill-rule="nonzero"/></g><g fill="#000000" fill-opacity="1"><g transform="translate(136.564731, 235.17574)"><g><path d="M 46.390625 -43.609375 L 51.78125 -43.609375 L 51.78125 -57.90625 C 51.78125 -69.65625 51.128906 -77.539062 49.828125 -81.5625 C 48.523438 -85.582031 46.019531 -87.59375 42.3125 -87.59375 C 40.082031 -87.59375 38.070312 -87.003906 36.28125 -85.828125 C 34.488281 -84.648438 33.59375 -83.039062 33.59375 -81 C 33.59375 -78.957031 33.960938 -76.882812 34.703125 -74.78125 L 39.34375 -74.78125 C 40.332031 -72.1875 40.828125 -69.0625 40.828125 -65.40625 C 40.828125 -61.757812 39.28125 -58.609375 36.1875 -55.953125 C 33.09375 -53.296875 29.195312 -51.96875 24.5 -51.96875 C 13.851562 -51.96875 8.53125 -57.097656 8.53125 -67.359375 C 8.53125 -82.578125 21.460938 -90.1875 47.328125 -90.1875 C 62.046875 -90.1875 72.21875 -87.679688 77.84375 -82.671875 C 83.476562 -77.660156 86.296875 -68.472656 86.296875 -55.109375 L 86.296875 -17.4375 C 86.296875 -11.007812 88.085938 -7.796875 91.671875 -7.796875 C 95.878906 -7.796875 98.351562 -14.164062 99.09375 -26.90625 L 101.875 -26.71875 C 101.382812 -15.832031 99.34375 -8.347656 95.75 -4.265625 C 92.164062 -0.179688 86.289062 1.859375 78.125 1.859375 C 63.28125 1.859375 54.742188 -2.71875 52.515625 -11.875 C 50.910156 -7.175781 48.5 -3.710938 45.28125 -1.484375 C 42.0625 0.742188 37.359375 1.859375 31.171875 1.859375 C 12.867188 1.859375 3.71875 -5.625 3.71875 -20.59375 C 3.71875 -29.382812 7.210938 -35.414062 14.203125 -38.6875 C 21.191406 -41.96875 31.921875 -43.609375 46.390625 -43.609375 Z M 38.96875 -20.78125 C 38.96875 -14.351562 39.304688 -10.207031 39.984375 -8.34375 C 40.671875 -6.488281 41.972656 -5.5625 43.890625 -5.5625 C 45.804688 -5.5625 47.597656 -7.140625 49.265625 -10.296875 C 50.941406 -13.453125 51.78125 -17.816406 51.78125 -23.390625 L 51.78125 -40.640625 L 50.484375 -40.640625 C 42.804688 -40.640625 38.96875 -35.007812 38.96875 -23.75 Z M 38.96875 -20.78125 "/></g></g></g></svg>